<svg id="Layer_1" xmlns="http://www.w3.org/2000/svg" xmlns:xlink="http://www.w3.org/1999/xlink" viewBox="0 0 68 68"><style>.st0{fill:#fff}.st1{fill:#007dc3}.st2{clip-path:url(#SVGID_2_)}</style><circle class="st0" cx="34" cy="34" r="33.9"/><path class="st1" d="M34 68C15.3 68 0 52.7 0 34S15.3 0 34 0s34 15.3 34 34-15.3 34-34 34zM34 .2C15.4.2.2 15.4.2 34S15.4 67.8 34 67.8 67.8 52.6 67.8 34 52.6.2 34 .2z"/><defs><circle id="SVGID_1_" cx="33.9" cy="34" r="32.9"/></defs><clipPath id="SVGID_2_"><use xlink:href="#SVGID_1_" overflow="visible"/></clipPath><g class="st2"><path class="st1" d="M70.1 29.6C68.3 11.3 52.8-3.1 33.9-3.1S-.6 11.2-2.4 29.6c0 0 11.2 5.5 27.4 6.6-.5-.6-7.5-5-8.1-5.5-.1-.1 14 7 17.2 2.3.8-.9 2.2-4.8 2-5.9s-4.7-6.6-5.2-12.8c0-.1 5.5 5.4 8.6 9.3.1.2 1.5 1.6 1.7 3 0 0 .3 2.2-.7 5.7 2.7.2 3.7 1.6 3.8 2.5 0 0 .9.2 1.3 1.1 16.2-1.7 24.5-6.3 24.5-6.3z"/><path class="st1" d="M25 36.3s-.3 1.1-6.2 5.2c0 0 10-4.1 11.6-4.4 1.6-.3 3-.2 3.8.7.7.8 1.2 3.5.9 5.2-.3 1.6-3.9 7.7-4.4 12.1.2 0 9.3-8.8 9.7-10.7.2-1.1-2.1-7.7-.7-7.8 2.7-.2 4.9-.4 5.9-.5-9.2-4.5-9.7 1.4-20.6.2z"/></g><path class="st1" d="M33.9 56.1c-8.9 0-16.9-5.3-20.3-13.4l.2-.1c3.5 8.1 11.4 13.3 20.1 13.3S50.7 50.8 54 42.7l.2.1c-3.4 8.1-11.4 13.3-20.3 13.3zM5.8 43.9c-.2.3-.3.7-.1 1.1.2.5.6.7 1.1.6 1.1-.4-.3-2.1 1.1-2.7.7-.3 1.3.2 1.5.8.2.4.2.8-.1 1.2l-.3-.2c.2-.3.2-.6.1-.9-.2-.5-.6-.8-1-.6-1.1.4.3 2.1-1.1 2.7-.7.3-1.3-.2-1.5-.8-.2-.5-.2-1 .1-1.5l.2.3zm4.6 2.2l.6 1c.3.5.5 1.3-.3 1.7-.6.4-1.2 0-1.5-.5l-.4-.8-1.7 1-.2-.3 3.5-2.1zM9 47.3l.4.8c.2.4.6.7 1.1.4.5-.3.4-.8.2-1.1l-.4-.7-1.3.6zm3.9 2.8l.2.3-2.1 3.8-.2-.4.6-1-1.4-1.7-1.1.3-.2-.3 4.2-1zm-.2.4l-2.3.5 1.1 1.5 1.2-2zm2.4 2l.8.7c.2.2 1.1 1 .3 1.8-.5.6-1.1.3-1.5.1l-.5 2.2-.3-.3.5-2.2-.5-.5-1.3 1.5-.3-.3 2.8-3zm-1 1.6l.6.5c.6.5 1 .3 1.2.1.2-.2.4-.6-.2-1.2l-.6-.5-1 1.1zm3.9 1.1l2.1 1.4-.2.3-1.7-1.2-.8 1.2L19 58l-.2.3-1.6-1.1-.9 1.3 1.8 1.2-.2.3-2.1-1.5 2.2-3.3zm3.4 2.1l.4.2.8 4.3 1.5-3.2.3.2-1.7 3.7-.4-.2-.8-4.3-1.5 3.2-.3-.2 1.7-3.7zm8.5 5.8l.7-1 .4.1-.9 1.2.8 1.1-.5-.1-.5-.8c-.4.4-.8.6-1.4.5-.7-.1-1.2-.7-1-1.4.1-.6.6-.8 1.1-1-.2-.3-.4-.7-.3-1 .1-.6.6-.8 1.2-.8.5.1.9.5.8 1-.1.6-.6.8-1.1.9l.7 1.3zM28.8 62c-.4.2-.9.3-.9.8-.1.5.3.9.8 1 .4.1.8-.2 1.1-.5l-1-1.3zm-.2-1.3c0 .3.2.6.3.8.3-.1.8-.3.9-.7.1-.3-.2-.6-.5-.6s-.6.2-.7.5zm10.1 3.2c-.4.3-.9.5-1.5.5-1.2.1-2.2-.7-2.3-1.9-.1-1.2.6-2.2 1.9-2.4.6-.1 1.1.1 1.5.4l-.2.3c-.3-.3-.8-.4-1.2-.4-1.1.1-1.6 1-1.5 2s.9 1.7 1.9 1.6c.4 0 .8-.1 1.1-.4l-.2-1.4-1 .1V62l1.4-.2.1 2.1zm1.3-4.2l2.4-.7.1.3-2 .6.4 1.4 1.9-.5.1.3-1.9.5.4 1.5 2.1-.6.1.3-2.5.7-1.1-3.8zm3.8-1.2l.4-.2 3.8 2.1-1.5-3.2.3-.2 1.8 3.7-.4.2-3.8-2.1 1.5 3.2-.3.2-1.8-3.7zm4.5-2.4l.3-.2 2.2 3.4-.3.2-2.2-3.4zm1.8-1.2l1.9-1.6.2.3-1.6 1.4.9 1.1 1.5-1.3.2.3-1.5 1.3 1 1.2 1.7-1.4.2.3-2 1.7-2.5-3.3zm3.8-3.2l-.9 1-.3-.2 2.1-2.4.3.2-.9 1 2.8 2.5-.3.3-2.8-2.4zm1.6-2.4l1.3-2.1.3.2-1.1 1.8 1.2.8 1.1-1.7.3.2-1.1 1.7 1.3.9 1.2-1.9.3.2-1.4 2.2-3.4-2.3zm2.1-3.5l.2-.5 4.3-.9-3.3-1.3.1-.3 3.8 1.6-.2.5-4.3.9 3.3 1.4-.1.3-3.8-1.7z"/><path class="st0" d="M5.1 24.8l9.5-1.4-.3.7-3.6.5-1.1 3.8 2.6 2.2-.1.7L5 25.1l.1-.3zm5.1-.1l-4.2.6L9.1 28l1.1-3.3zm-.6-8.2l6.5 4.7-.4.5L9.3 17l.3-.5zm3.7-4.4l1.6-1.3c.7-.5 1.3-.8 1.9-.8.6 0 1.1.3 1.5.8.6.7.6 1.6 0 2.5.3-.1.8 0 1.6.3l3.5 1.2-.7.4-2.7-1c-.8-.3-1.4-.4-1.7-.4-.3 0-.7.2-1.1.5l-.8.7 2.4 3.1-.4.4-5.1-6.4zm.8 0l2 2.5 1-.8c.5-.4.8-.9 1-1.3.1-.4 0-.9-.3-1.2-.3-.4-.7-.6-1.1-.6-.5 0-1 .2-1.5.7l-1.1.7zM34 7.7L37.1 4h.6l-.1 8.3-.6-.1.1-7.3L34 8.6l-3-3.8-.1 7.4-.6.1V4h.6L34 7.7zm10.9-1.6l-2.6 7.6-.6-.2 2.6-7.6.6.2zm6.6 3.6l-4.7 5.8 3.1 2.5-.3.4-3.6-2.9 5-6.2.5.4zm9.1 10.2l-.4.3-2.1-3.1-2.7 1.8 2 3-.4.3-2-3-2.7 1.7 2.1 3.2-.4.3-2.5-3.7 6.7-4.4 2.4 3.6zm2.6 9.6l-.7.2c.2-.8.3-1.4.2-1.9-.1-.5-.3-.8-.7-1.1-.4-.2-.7-.3-1.2-.2-.3.1-.6.2-.8.5-.2.2-.3.7-.4 1.3-.1.6-.2 1.1-.3 1.4-.1.3-.2.6-.5.8-.2.3-.6.4-1 .5-.6.1-1.2 0-1.7-.3s-.8-.8-1-1.5c-.1-.6-.1-1.4.2-2.2l.7-.2c-.4.9-.5 1.6-.4 2.2.1.5.3.8.7 1.1.4.2.8.3 1.2.2.3-.1.6-.2.8-.5.2-.3.4-.7.5-1.4.1-.7.2-1.1.3-1.4.1-.3.2-.6.5-.8.2-.2.5-.4 1-.5.6-.1 1.1 0 1.6.3s.8.8 1 1.4c.2.7.2 1.4 0 2.1z"/></svg>